<svg xmlns="http://www.w3.org/2000/svg" xmlns:xlink="http://www.w3.org/1999/xlink" version="1.1" class="marks" width="1159" height="478" viewBox="0 0 1159 478"><rect width="1159" height="478" fill="white"/><g fill="none" stroke-miterlimit="10" transform="translate(51,41)"><g class="mark-group role-frame root" role="graphics-object" aria-roledescription="group mark container"><g transform="translate(0,0)"><path class="background" aria-hidden="true" d="M0.5,0.5h800v400h-800Z" stroke="#ddd"/><g><g class="mark-group role-axis" aria-hidden="true"><g transform="translate(0.5,400.5)"><path class="background" aria-hidden="true" d="M0,0h0v0h0Z" pointer-events="none"/><g><g class="mark-rule role-axis-grid" pointer-events="none"><line transform="translate(5,-400)" x2="0" y2="400" stroke="#ddd" stroke-width="1" opacity="1"/><line transform="translate(60,-400)" x2="0" y2="400" stroke="#ddd" stroke-width="1" opacity="1"/><line transform="translate(115,-400)" x2="0" y2="400" stroke="#ddd" stroke-width="1" opacity="1"/><line transform="translate(170,-400)" x2="0" y2="400" stroke="#ddd" stroke-width="1" opacity="1"/><line transform="translate(225,-400)" x2="0" y2="400" stroke="#ddd" stroke-width="1" opacity="1"/><line transform="translate(280,-400)" x2="0" y2="400" stroke="#ddd" stroke-width="1" opacity="1"/><line transform="translate(336,-400)" x2="0" y2="400" stroke="#ddd" stroke-width="1" opacity="1"/><line transform="translate(391,-400)" x2="0" y2="400" stroke="#ddd" stroke-width="1" opacity="1"/><line transform="translate(446,-400)" x2="0" y2="400" stroke="#ddd" stroke-width="1" opacity="1"/><line transform="translate(501,-400)" x2="0" y2="400" stroke="#ddd" stroke-width="1" opacity="1"/><line transform="translate(556,-400)" x2="0" y2="400" stroke="#ddd" stroke-width="1" opacity="1"/><line transform="translate(611,-400)" x2="0" y2="400" stroke="#ddd" stroke-width="1" opacity="1"/><line transform="translate(667,-400)" x2="0" y2="400" stroke="#ddd" stroke-width="1" opacity="1"/><line transform="translate(722,-400)" x2="0" y2="400" stroke="#ddd" stroke-width="1" opacity="1"/><line transform="translate(777,-400)" x2="0" y2="400" stroke="#ddd" stroke-width="1" opacity="1"/></g></g><path class="foreground" aria-hidden="true" d="" pointer-events="none" display="none"/></g></g><g class="mark-group role-axis" aria-hidden="true"><g transform="translate(0.5,0.5)"><path class="background" aria-hidden="true" d="M0,0h0v0h0Z" pointer-events="none"/><g><g class="mark-rule role-axis-grid" pointer-events="none"><line transform="translate(0,400)" x2="800" y2="0" stroke="#ddd" stroke-width="1" opacity="1"/><line transform="translate(0,356)" x2="800" y2="0" stroke="#ddd" stroke-width="1" opacity="1"/><line transform="translate(0,311)" x2="800" y2="0" stroke="#ddd" stroke-width="1" opacity="1"/><line transform="translate(0,267)" x2="800" y2="0" stroke="#ddd" stroke-width="1" opacity="1"/><line transform="translate(0,222)" x2="800" y2="0" stroke="#ddd" stroke-width="1" opacity="1"/><line transform="translate(0,178)" x2="800" y2="0" stroke="#ddd" stroke-width="1" opacity="1"/><line transform="translate(0,133)" x2="800" y2="0" stroke="#ddd" stroke-width="1" opacity="1"/><line transform="translate(0,89)" x2="800" y2="0" stroke="#ddd" stroke-width="1" opacity="1"/><line transform="translate(0,44)" x2="800" y2="0" stroke="#ddd" stroke-width="1" opacity="1"/><line transform="translate(0,0)" x2="800" y2="0" stroke="#ddd" stroke-width="1" opacity="1"/></g></g><path class="foreground" aria-hidden="true" d="" pointer-events="none" display="none"/></g></g><g class="mark-group role-axis" role="graphics-symbol" aria-roledescription="axis" aria-label="X-axis titled 'Date' for a time scale with values from Wednesday, 02 July 2025, 8:00:00 PM to Thursday, 31 July 2025, 8:00:00 PM"><g transform="translate(0.5,400.5)"><path class="background" aria-hidden="true" d="M0,0h0v0h0Z" pointer-events="none"/><g><g class="mark-rule role-axis-tick" pointer-events="none"><line transform="translate(5,0)" x2="0" y2="5" stroke="#888" stroke-width="1" opacity="1"/><line transform="translate(60,0)" x2="0" y2="5" stroke="#888" stroke-width="1" opacity="1"/><line transform="translate(115,0)" x2="0" y2="5" stroke="#888" stroke-width="1" opacity="1"/><line transform="translate(170,0)" x2="0" y2="5" stroke="#888" stroke-width="1" opacity="1"/><line transform="translate(225,0)" x2="0" y2="5" stroke="#888" stroke-width="1" opacity="1"/><line transform="translate(280,0)" x2="0" y2="5" stroke="#888" stroke-width="1" opacity="1"/><line transform="translate(336,0)" x2="0" y2="5" stroke="#888" stroke-width="1" opacity="1"/><line transform="translate(391,0)" x2="0" y2="5" stroke="#888" stroke-width="1" opacity="1"/><line transform="translate(446,0)" x2="0" y2="5" stroke="#888" stroke-width="1" opacity="1"/><line transform="translate(501,0)" x2="0" y2="5" stroke="#888" stroke-width="1" opacity="1"/><line transform="translate(556,0)" x2="0" y2="5" stroke="#888" stroke-width="1" opacity="1"/><line transform="translate(611,0)" x2="0" y2="5" stroke="#888" stroke-width="1" opacity="1"/><line transform="translate(667,0)" x2="0" y2="5" stroke="#888" stroke-width="1" opacity="1"/><line transform="translate(722,0)" x2="0" y2="5" stroke="#888" stroke-width="1" opacity="1"/><line transform="translate(777,0)" x2="0" y2="5" stroke="#888" stroke-width="1" opacity="1"/></g><g class="mark-text role-axis-label" pointer-events="none"><text text-anchor="middle" transform="translate(4.597701149425287,15)" font-family="sans-serif" font-size="10px" fill="#000" opacity="1">Thu 03</text><text text-anchor="middle" transform="translate(59.77011494252874,15)" font-family="sans-serif" font-size="10px" fill="#000" opacity="1">Sat 05</text><text text-anchor="middle" transform="translate(114.94252873563218,15)" font-family="sans-serif" font-size="10px" fill="#000" opacity="1">Mon 07</text><text text-anchor="middle" transform="translate(170.1149425287356,15)" font-family="sans-serif" font-size="10px" fill="#000" opacity="1">Wed 09</text><text text-anchor="middle" transform="translate(225.28735632183907,15)" font-family="sans-serif" font-size="10px" fill="#000" opacity="1">Fri 11</text><text text-anchor="middle" transform="translate(280.45977011494256,15)" font-family="sans-serif" font-size="10px" fill="#000" opacity="1">Jul 13</text><text text-anchor="middle" transform="translate(335.632183908046,15)" font-family="sans-serif" font-size="10px" fill="#000" opacity="1">Tue 15</text><text text-anchor="middle" transform="translate(390.8045977011494,15)" font-family="sans-serif" font-size="10px" fill="#000" opacity="1">Thu 17</text><text text-anchor="middle" transform="translate(445.9770114942529,15)" font-family="sans-serif" font-size="10px" fill="#000" opacity="1">Sat 19</text><text text-anchor="middle" transform="translate(501.1494252873563,15)" font-family="sans-serif" font-size="10px" fill="#000" opacity="1">Mon 21</text><text text-anchor="middle" transform="translate(556.3218390804598,15)" font-family="sans-serif" font-size="10px" fill="#000" opacity="1">Wed 23</text><text text-anchor="middle" transform="translate(611.4942528735633,15)" font-family="sans-serif" font-size="10px" fill="#000" opacity="1">Fri 25</text><text text-anchor="middle" transform="translate(666.6666666666667,15)" font-family="sans-serif" font-size="10px" fill="#000" opacity="1">Jul 27</text><text text-anchor="middle" transform="translate(721.8390804597701,15)" font-family="sans-serif" font-size="10px" fill="#000" opacity="1">Tue 29</text><text text-anchor="middle" transform="translate(777.0114942528735,15)" font-family="sans-serif" font-size="10px" fill="#000" opacity="1">Thu 31</text></g><g class="mark-rule role-axis-domain" pointer-events="none"><line transform="translate(0,0)" x2="800" y2="0" stroke="#888" stroke-width="1" opacity="1"/></g><g class="mark-text role-axis-title" pointer-events="none"><text text-anchor="middle" transform="translate(400,30)" font-family="sans-serif" font-size="11px" font-weight="bold" fill="#000" opacity="1">Date</text></g></g><path class="foreground" aria-hidden="true" d="" pointer-events="none" display="none"/></g></g><g class="mark-group role-axis" role="graphics-symbol" aria-roledescription="axis" aria-label="Y-axis titled 'Cost ($)' for a linear scale with values from 0 to 5"><g transform="translate(0.5,0.5)"><path class="background" aria-hidden="true" d="M0,0h0v0h0Z" pointer-events="none"/><g><g class="mark-rule role-axis-tick" pointer-events="none"><line transform="translate(0,400)" x2="-5" y2="0" stroke="#888" stroke-width="1" opacity="1"/><line transform="translate(0,356)" x2="-5" y2="0" stroke="#888" stroke-width="1" opacity="1"/><line transform="translate(0,311)" x2="-5" y2="0" stroke="#888" stroke-width="1" opacity="1"/><line transform="translate(0,267)" x2="-5" y2="0" stroke="#888" stroke-width="1" opacity="1"/><line transform="translate(0,222)" x2="-5" y2="0" stroke="#888" stroke-width="1" opacity="1"/><line transform="translate(0,178)" x2="-5" y2="0" stroke="#888" stroke-width="1" opacity="1"/><line transform="translate(0,133)" x2="-5" y2="0" stroke="#888" stroke-width="1" opacity="1"/><line transform="translate(0,89)" x2="-5" y2="0" stroke="#888" stroke-width="1" opacity="1"/><line transform="translate(0,44)" x2="-5" y2="0" stroke="#888" stroke-width="1" opacity="1"/><line transform="translate(0,0)" x2="-5" y2="0" stroke="#888" stroke-width="1" opacity="1"/></g><g class="mark-text role-axis-label" pointer-events="none"><text text-anchor="end" transform="translate(-7,403)" font-family="sans-serif" font-size="10px" fill="#000" opacity="1">0.0</text><text text-anchor="end" transform="translate(-7,358.55555555555554)" font-family="sans-serif" font-size="10px" fill="#000" opacity="1">0.5</text><text text-anchor="end" transform="translate(-7,314.11111111111114)" font-family="sans-serif" font-size="10px" fill="#000" opacity="1">1.0</text><text text-anchor="end" transform="translate(-7,269.6666666666667)" font-family="sans-serif" font-size="10px" fill="#000" opacity="1">1.5</text><text text-anchor="end" transform="translate(-7,225.22222222222223)" font-family="sans-serif" font-size="10px" fill="#000" opacity="1">2.0</text><text text-anchor="end" transform="translate(-7,180.77777777777777)" font-family="sans-serif" font-size="10px" fill="#000" opacity="1">2.5</text><text text-anchor="end" transform="translate(-7,136.33333333333334)" font-family="sans-serif" font-size="10px" fill="#000" opacity="1">3.0</text><text text-anchor="end" transform="translate(-7,91.88888888888889)" font-family="sans-serif" font-size="10px" fill="#000" opacity="1">3.5</text><text text-anchor="end" transform="translate(-7,47.444444444444464)" font-family="sans-serif" font-size="10px" fill="#000" opacity="1">4.0</text><text text-anchor="end" transform="translate(-7,3)" font-family="sans-serif" font-size="10px" fill="#000" opacity="1">4.5</text></g><g class="mark-rule role-axis-domain" pointer-events="none"><line transform="translate(0,400)" x2="0" y2="-400" stroke="#888" stroke-width="1" opacity="1"/></g><g class="mark-text role-axis-title" pointer-events="none"><text text-anchor="middle" transform="translate(-35,200) rotate(-90) translate(0,-2)" font-family="sans-serif" font-size="11px" font-weight="bold" fill="#000" opacity="1">Cost ($)</text></g></g><path class="foreground" aria-hidden="true" d="" pointer-events="none" display="none"/></g></g><g class="mark-group role-scope layer_0_pathgroup" role="graphics-object" aria-roledescription="group mark container"><g transform="translate(0,0)"><path class="background" aria-hidden="true" d="M0,0h800v400h-800Z"/><g><g class="mark-line role-mark layer_0_marks" role="graphics-object" aria-roledescription="line mark container"><path aria-label="Date: Jul 02, 2025; Cost ($): 0.48; AWS Service: Amazon Virtual Private Cloud" role="graphics-symbol" aria-roledescription="line mark" d="M0,357.333L27.586,357.333L55.172,357.333L82.759,357.333L110.345,357.333L137.931,357.333L165.517,357.333L193.103,357.333L220.69,357.333L248.276,357.333L275.862,357.333L303.448,357.333L331.034,357.333L358.621,357.333L386.207,357.333L413.793,357.106L441.379,334.997L468.966,322.258L496.552,324.39L524.138,329.598L551.724,315.794L579.31,309.798L606.897,66.522L634.483,14.701L662.069,105.625L689.655,229.333L717.241,229.333L744.828,340.056L772.414,212.428L800,229.298" stroke="#4c78a8" stroke-width="1.5" stroke-dasharray="5,5"/></g></g><path class="foreground" aria-hidden="true" d="" display="none"/></g><g transform="translate(0,0)"><path class="background" aria-hidden="true" d="M0,0h800v400h-800Z"/><g><g class="mark-line role-mark layer_0_marks" role="graphics-object" aria-roledescription="line mark container"><path aria-label="Date: Jul 02, 2025; Cost ($): 0.48; AWS Service: 📊 TOTAL" role="graphics-symbol" aria-roledescription="line mark" d="M0,357.333L27.586,357.333L55.172,357.333L82.759,357.333L110.345,357.333L137.931,357.333L165.517,357.333L193.103,357.333L220.69,357.333L248.276,357.333L275.862,357.333L303.448,357.333L331.034,357.333L358.621,357.333L386.207,357.333L413.793,357.106L441.379,334.997L468.966,322.258L496.552,324.39L524.138,329.598L551.724,315.794L579.31,309.798L606.897,66.522L634.483,14.701L662.069,105.625L689.655,229.333L717.241,229.333L744.828,340.056L772.414,212.428L800,229.298" stroke="#f58518" stroke-width="3" stroke-dasharray="0"/></g></g><path class="foreground" aria-hidden="true" d="" display="none"/></g></g><g class="mark-symbol role-mark layer_1_marks" role="graphics-object" aria-roledescription="symbol mark container"><path aria-label="Date: Jul 02, 2025; Cost ($): 0.48; AWS Service: Amazon Virtual Private Cloud" role="graphics-symbol" aria-roledescription="point" transform="translate(0,357.3333333333333)" d="M2.739,0A2.739,2.739,0,1,1,-2.739,0A2.739,2.739,0,1,1,2.739,0" fill="#4c78a8" stroke-width="2" stroke-dasharray="5,5" opacity="1"/><path aria-label="Date: Jul 03, 2025; Cost ($): 0.48; AWS Service: Amazon Virtual Private Cloud" role="graphics-symbol" aria-roledescription="point" transform="translate(27.586206896551722,357.3333333333333)" d="M2.739,0A2.739,2.739,0,1,1,-2.739,0A2.739,2.739,0,1,1,2.739,0" fill="#4c78a8" stroke-width="2" stroke-dasharray="5,5" opacity="1"/><path aria-label="Date: Jul 04, 2025; Cost ($): 0.48; AWS Service: Amazon Virtual Private Cloud" role="graphics-symbol" aria-roledescription="point" transform="translate(55.172413793103445,357.3333333333333)" d="M2.739,0A2.739,2.739,0,1,1,-2.739,0A2.739,2.739,0,1,1,2.739,0" fill="#4c78a8" stroke-width="2" stroke-dasharray="5,5" opacity="1"/><path aria-label="Date: Jul 05, 2025; Cost ($): 0.48; AWS Service: Amazon Virtual Private Cloud" role="graphics-symbol" aria-roledescription="point" transform="translate(82.75862068965517,357.3333333333333)" d="M2.739,0A2.739,2.739,0,1,1,-2.739,0A2.739,2.739,0,1,1,2.739,0" fill="#4c78a8" stroke-width="2" stroke-dasharray="5,5" opacity="1"/><path aria-label="Date: Jul 06, 2025; Cost ($): 0.48; AWS Service: Amazon Virtual Private Cloud" role="graphics-symbol" aria-roledescription="point" transform="translate(110.34482758620689,357.3333333333333)" d="M2.739,0A2.739,2.739,0,1,1,-2.739,0A2.739,2.739,0,1,1,2.739,0" fill="#4c78a8" stroke-width="2" stroke-dasharray="5,5" opacity="1"/><path aria-label="Date: Jul 07, 2025; Cost ($): 0.48; AWS Service: Amazon Virtual Private Cloud" role="graphics-symbol" aria-roledescription="point" transform="translate(137.93103448275863,357.3333333333333)" d="M2.739,0A2.739,2.739,0,1,1,-2.739,0A2.739,2.739,0,1,1,2.739,0" fill="#4c78a8" stroke-width="2" stroke-dasharray="5,5" opacity="1"/><path aria-label="Date: Jul 08, 2025; Cost ($): 0.48; AWS Service: Amazon Virtual Private Cloud" role="graphics-symbol" aria-roledescription="point" transform="translate(165.51724137931035,357.3333333333333)" d="M2.739,0A2.739,2.739,0,1,1,-2.739,0A2.739,2.739,0,1,1,2.739,0" fill="#4c78a8" stroke-width="2" stroke-dasharray="5,5" opacity="1"/><path aria-label="Date: Jul 09, 2025; Cost ($): 0.48; AWS Service: Amazon Virtual Private Cloud" role="graphics-symbol" aria-roledescription="point" transform="translate(193.10344827586206,357.3333333333333)" d="M2.739,0A2.739,2.739,0,1,1,-2.739,0A2.739,2.739,0,1,1,2.739,0" fill="#4c78a8" stroke-width="2" stroke-dasharray="5,5" opacity="1"/><path aria-label="Date: Jul 10, 2025; Cost ($): 0.48; AWS Service: Amazon Virtual Private Cloud" role="graphics-symbol" aria-roledescription="point" transform="translate(220.68965517241378,357.3333333333333)" d="M2.739,0A2.739,2.739,0,1,1,-2.739,0A2.739,2.739,0,1,1,2.739,0" fill="#4c78a8" stroke-width="2" stroke-dasharray="5,5" opacity="1"/><path aria-label="Date: Jul 11, 2025; Cost ($): 0.48; AWS Service: Amazon Virtual Private Cloud" role="graphics-symbol" aria-roledescription="point" transform="translate(248.27586206896552,357.3333333333333)" d="M2.739,0A2.739,2.739,0,1,1,-2.739,0A2.739,2.739,0,1,1,2.739,0" fill="#4c78a8" stroke-width="2" stroke-dasharray="5,5" opacity="1"/><path aria-label="Date: Jul 12, 2025; Cost ($): 0.48; AWS Service: Amazon Virtual Private Cloud" role="graphics-symbol" aria-roledescription="point" transform="translate(275.86206896551727,357.3333333333333)" d="M2.739,0A2.739,2.739,0,1,1,-2.739,0A2.739,2.739,0,1,1,2.739,0" fill="#4c78a8" stroke-width="2" stroke-dasharray="5,5" opacity="1"/><path aria-label="Date: Jul 13, 2025; Cost ($): 0.48; AWS Service: Amazon Virtual Private Cloud" role="graphics-symbol" aria-roledescription="point" transform="translate(303.44827586206895,357.3333333333333)" d="M2.739,0A2.739,2.739,0,1,1,-2.739,0A2.739,2.739,0,1,1,2.739,0" fill="#4c78a8" stroke-width="2" stroke-dasharray="5,5" opacity="1"/><path aria-label="Date: Jul 14, 2025; Cost ($): 0.48; AWS Service: Amazon Virtual Private Cloud" role="graphics-symbol" aria-roledescription="point" transform="translate(331.0344827586207,357.3333333333333)" d="M2.739,0A2.739,2.739,0,1,1,-2.739,0A2.739,2.739,0,1,1,2.739,0" fill="#4c78a8" stroke-width="2" stroke-dasharray="5,5" opacity="1"/><path aria-label="Date: Jul 15, 2025; Cost ($): 0.48; AWS Service: Amazon Virtual Private Cloud" role="graphics-symbol" aria-roledescription="point" transform="translate(358.62068965517244,357.3333333333333)" d="M2.739,0A2.739,2.739,0,1,1,-2.739,0A2.739,2.739,0,1,1,2.739,0" fill="#4c78a8" stroke-width="2" stroke-dasharray="5,5" opacity="1"/><path aria-label="Date: Jul 16, 2025; Cost ($): 0.48; AWS Service: Amazon Virtual Private Cloud" role="graphics-symbol" aria-roledescription="point" transform="translate(386.2068965517241,357.3333333333333)" d="M2.739,0A2.739,2.739,0,1,1,-2.739,0A2.739,2.739,0,1,1,2.739,0" fill="#4c78a8" stroke-width="2" stroke-dasharray="5,5" opacity="1"/><path aria-label="Date: Jul 17, 2025; Cost ($): 0.48255556; AWS Service: Amazon Virtual Private Cloud" role="graphics-symbol" aria-roledescription="point" transform="translate(413.7931034482759,357.10617244444444)" d="M2.739,0A2.739,2.739,0,1,1,-2.739,0A2.739,2.739,0,1,1,2.739,0" fill="#4c78a8" stroke-width="2" stroke-dasharray="5,5" opacity="1"/><path aria-label="Date: Jul 18, 2025; Cost ($): 0.731282015; AWS Service: Amazon Virtual Private Cloud" role="graphics-symbol" aria-roledescription="point" transform="translate(441.37931034482756,334.9971542222222)" d="M2.739,0A2.739,2.739,0,1,1,-2.739,0A2.739,2.739,0,1,1,2.739,0" fill="#4c78a8" stroke-width="2" stroke-dasharray="5,5" opacity="1"/><path aria-label="Date: Jul 19, 2025; Cost ($): 0.874602785; AWS Service: Amazon Virtual Private Cloud" role="graphics-symbol" aria-roledescription="point" transform="translate(468.96551724137925,322.2575302222222)" d="M2.739,0A2.739,2.739,0,1,1,-2.739,0A2.739,2.739,0,1,1,2.739,0" fill="#4c78a8" stroke-width="2" stroke-dasharray="5,5" opacity="1"/><path aria-label="Date: Jul 20, 2025; Cost ($): 0.85061667; AWS Service: Amazon Virtual Private Cloud" role="graphics-symbol" aria-roledescription="point" transform="translate(496.55172413793105,324.38962933333335)" d="M2.739,0A2.739,2.739,0,1,1,-2.739,0A2.739,2.739,0,1,1,2.739,0" fill="#4c78a8" stroke-width="2" stroke-dasharray="5,5" opacity="1"/><path aria-label="Date: Jul 21, 2025; Cost ($): 0.792020835; AWS Service: Amazon Virtual Private Cloud" role="graphics-symbol" aria-roledescription="point" transform="translate(524.1379310344828,329.598148)" d="M2.739,0A2.739,2.739,0,1,1,-2.739,0A2.739,2.739,0,1,1,2.739,0" fill="#4c78a8" stroke-width="2" stroke-dasharray="5,5" opacity="1"/><path aria-label="Date: Jul 22, 2025; Cost ($): 0.94731528; AWS Service: Amazon Virtual Private Cloud" role="graphics-symbol" aria-roledescription="point" transform="translate(551.7241379310345,315.79419733333333)" d="M2.739,0A2.739,2.739,0,1,1,-2.739,0A2.739,2.739,0,1,1,2.739,0" fill="#4c78a8" stroke-width="2" stroke-dasharray="5,5" opacity="1"/><path aria-label="Date: Jul 23, 2025; Cost ($): 1.01476806; AWS Service: Amazon Virtual Private Cloud" role="graphics-symbol" aria-roledescription="point" transform="translate(579.3103448275862,309.79839466666664)" d="M2.739,0A2.739,2.739,0,1,1,-2.739,0A2.739,2.739,0,1,1,2.739,0" fill="#4c78a8" stroke-width="2" stroke-dasharray="5,5" opacity="1"/><path aria-label="Date: Jul 24, 2025; Cost ($): 3.7516259005; AWS Service: Amazon Virtual Private Cloud" role="graphics-symbol" aria-roledescription="point" transform="translate(606.8965517241379,66.5221421777778)" d="M2.739,0A2.739,2.739,0,1,1,-2.739,0A2.739,2.739,0,1,1,2.739,0" fill="#4c78a8" stroke-width="2" stroke-dasharray="5,5" opacity="1"/><path aria-label="Date: Jul 25, 2025; Cost ($): 4.3346161322; AWS Service: Amazon Virtual Private Cloud" role="graphics-symbol" aria-roledescription="point" transform="translate(634.4827586206897,14.700788248888896)" d="M2.739,0A2.739,2.739,0,1,1,-2.739,0A2.739,2.739,0,1,1,2.739,0" fill="#4c78a8" stroke-width="2" stroke-dasharray="5,5" opacity="1"/><path aria-label="Date: Jul 26, 2025; Cost ($): 3.3117216837; AWS Service: Amazon Virtual Private Cloud" role="graphics-symbol" aria-roledescription="point" transform="translate(662.0689655172414,105.62473922666666)" d="M2.739,0A2.739,2.739,0,1,1,-2.739,0A2.739,2.739,0,1,1,2.739,0" fill="#4c78a8" stroke-width="2" stroke-dasharray="5,5" opacity="1"/><path aria-label="Date: Jul 27, 2025; Cost ($): 1.92; AWS Service: Amazon Virtual Private Cloud" role="graphics-symbol" aria-roledescription="point" transform="translate(689.655172413793,229.33333333333334)" d="M2.739,0A2.739,2.739,0,1,1,-2.739,0A2.739,2.739,0,1,1,2.739,0" fill="#4c78a8" stroke-width="2" stroke-dasharray="5,5" opacity="1"/><path aria-label="Date: Jul 28, 2025; Cost ($): 1.9200003189; AWS Service: Amazon Virtual Private Cloud" role="graphics-symbol" aria-roledescription="point" transform="translate(717.2413793103449,229.3333049866667)" d="M2.739,0A2.739,2.739,0,1,1,-2.739,0A2.739,2.739,0,1,1,2.739,0" fill="#4c78a8" stroke-width="2" stroke-dasharray="5,5" opacity="1"/><path aria-label="Date: Jul 29, 2025; Cost ($): 0.6743714619; AWS Service: Amazon Virtual Private Cloud" role="graphics-symbol" aria-roledescription="point" transform="translate(744.8275862068965,340.0558700533333)" d="M2.739,0A2.739,2.739,0,1,1,-2.739,0A2.739,2.739,0,1,1,2.739,0" fill="#4c78a8" stroke-width="2" stroke-dasharray="5,5" opacity="1"/><path aria-label="Date: Jul 30, 2025; Cost ($): 2.110190519; AWS Service: Amazon Virtual Private Cloud" role="graphics-symbol" aria-roledescription="point" transform="translate(772.4137931034483,212.4275094222222)" d="M2.739,0A2.739,2.739,0,1,1,-2.739,0A2.739,2.739,0,1,1,2.739,0" fill="#4c78a8" stroke-width="2" stroke-dasharray="5,5" opacity="1"/><path aria-label="Date: Jul 31, 2025; Cost ($): 1.9203922565; AWS Service: Amazon Virtual Private Cloud" role="graphics-symbol" aria-roledescription="point" transform="translate(800,229.29846608888892)" d="M2.739,0A2.739,2.739,0,1,1,-2.739,0A2.739,2.739,0,1,1,2.739,0" fill="#4c78a8" stroke-width="2" stroke-dasharray="5,5" opacity="1"/><path aria-label="Date: Jul 02, 2025; Cost ($): 0.48; AWS Service: 📊 TOTAL" role="graphics-symbol" aria-roledescription="point" transform="translate(0,357.3333333333333)" d="M2.739,0A2.739,2.739,0,1,1,-2.739,0A2.739,2.739,0,1,1,2.739,0" fill="#f58518" stroke-width="2" stroke-dasharray="0" opacity="1"/><path aria-label="Date: Jul 03, 2025; Cost ($): 0.48; AWS Service: 📊 TOTAL" role="graphics-symbol" aria-roledescription="point" transform="translate(27.586206896551722,357.3333333333333)" d="M2.739,0A2.739,2.739,0,1,1,-2.739,0A2.739,2.739,0,1,1,2.739,0" fill="#f58518" stroke-width="2" stroke-dasharray="0" opacity="1"/><path aria-label="Date: Jul 04, 2025; Cost ($): 0.48; AWS Service: 📊 TOTAL" role="graphics-symbol" aria-roledescription="point" transform="translate(55.172413793103445,357.3333333333333)" d="M2.739,0A2.739,2.739,0,1,1,-2.739,0A2.739,2.739,0,1,1,2.739,0" fill="#f58518" stroke-width="2" stroke-dasharray="0" opacity="1"/><path aria-label="Date: Jul 05, 2025; Cost ($): 0.48; AWS Service: 📊 TOTAL" role="graphics-symbol" aria-roledescription="point" transform="translate(82.75862068965517,357.3333333333333)" d="M2.739,0A2.739,2.739,0,1,1,-2.739,0A2.739,2.739,0,1,1,2.739,0" fill="#f58518" stroke-width="2" stroke-dasharray="0" opacity="1"/><path aria-label="Date: Jul 06, 2025; Cost ($): 0.48; AWS Service: 📊 TOTAL" role="graphics-symbol" aria-roledescription="point" transform="translate(110.34482758620689,357.3333333333333)" d="M2.739,0A2.739,2.739,0,1,1,-2.739,0A2.739,2.739,0,1,1,2.739,0" fill="#f58518" stroke-width="2" stroke-dasharray="0" opacity="1"/><path aria-label="Date: Jul 07, 2025; Cost ($): 0.48; AWS Service: 📊 TOTAL" role="graphics-symbol" aria-roledescription="point" transform="translate(137.93103448275863,357.3333333333333)" d="M2.739,0A2.739,2.739,0,1,1,-2.739,0A2.739,2.739,0,1,1,2.739,0" fill="#f58518" stroke-width="2" stroke-dasharray="0" opacity="1"/><path aria-label="Date: Jul 08, 2025; Cost ($): 0.48; AWS Service: 📊 TOTAL" role="graphics-symbol" aria-roledescription="point" transform="translate(165.51724137931035,357.3333333333333)" d="M2.739,0A2.739,2.739,0,1,1,-2.739,0A2.739,2.739,0,1,1,2.739,0" fill="#f58518" stroke-width="2" stroke-dasharray="0" opacity="1"/><path aria-label="Date: Jul 09, 2025; Cost ($): 0.48; AWS Service: 📊 TOTAL" role="graphics-symbol" aria-roledescription="point" transform="translate(193.10344827586206,357.3333333333333)" d="M2.739,0A2.739,2.739,0,1,1,-2.739,0A2.739,2.739,0,1,1,2.739,0" fill="#f58518" stroke-width="2" stroke-dasharray="0" opacity="1"/><path aria-label="Date: Jul 10, 2025; Cost ($): 0.48; AWS Service: 📊 TOTAL" role="graphics-symbol" aria-roledescription="point" transform="translate(220.68965517241378,357.3333333333333)" d="M2.739,0A2.739,2.739,0,1,1,-2.739,0A2.739,2.739,0,1,1,2.739,0" fill="#f58518" stroke-width="2" stroke-dasharray="0" opacity="1"/><path aria-label="Date: Jul 11, 2025; Cost ($): 0.48; AWS Service: 📊 TOTAL" role="graphics-symbol" aria-roledescription="point" transform="translate(248.27586206896552,357.3333333333333)" d="M2.739,0A2.739,2.739,0,1,1,-2.739,0A2.739,2.739,0,1,1,2.739,0" fill="#f58518" stroke-width="2" stroke-dasharray="0" opacity="1"/><path aria-label="Date: Jul 12, 2025; Cost ($): 0.48; AWS Service: 📊 TOTAL" role="graphics-symbol" aria-roledescription="point" transform="translate(275.86206896551727,357.3333333333333)" d="M2.739,0A2.739,2.739,0,1,1,-2.739,0A2.739,2.739,0,1,1,2.739,0" fill="#f58518" stroke-width="2" stroke-dasharray="0" opacity="1"/><path aria-label="Date: Jul 13, 2025; Cost ($): 0.48; AWS Service: 📊 TOTAL" role="graphics-symbol" aria-roledescription="point" transform="translate(303.44827586206895,357.3333333333333)" d="M2.739,0A2.739,2.739,0,1,1,-2.739,0A2.739,2.739,0,1,1,2.739,0" fill="#f58518" stroke-width="2" stroke-dasharray="0" opacity="1"/><path aria-label="Date: Jul 14, 2025; Cost ($): 0.48; AWS Service: 📊 TOTAL" role="graphics-symbol" aria-roledescription="point" transform="translate(331.0344827586207,357.3333333333333)" d="M2.739,0A2.739,2.739,0,1,1,-2.739,0A2.739,2.739,0,1,1,2.739,0" fill="#f58518" stroke-width="2" stroke-dasharray="0" opacity="1"/><path aria-label="Date: Jul 15, 2025; Cost ($): 0.48; AWS Service: 📊 TOTAL" role="graphics-symbol" aria-roledescription="point" transform="translate(358.62068965517244,357.3333333333333)" d="M2.739,0A2.739,2.739,0,1,1,-2.739,0A2.739,2.739,0,1,1,2.739,0" fill="#f58518" stroke-width="2" stroke-dasharray="0" opacity="1"/><path aria-label="Date: Jul 16, 2025; Cost ($): 0.48; AWS Service: 📊 TOTAL" role="graphics-symbol" aria-roledescription="point" transform="translate(386.2068965517241,357.3333333333333)" d="M2.739,0A2.739,2.739,0,1,1,-2.739,0A2.739,2.739,0,1,1,2.739,0" fill="#f58518" stroke-width="2" stroke-dasharray="0" opacity="1"/><path aria-label="Date: Jul 17, 2025; Cost ($): 0.48255556; AWS Service: 📊 TOTAL" role="graphics-symbol" aria-roledescription="point" transform="translate(413.7931034482759,357.10617244444444)" d="M2.739,0A2.739,2.739,0,1,1,-2.739,0A2.739,2.739,0,1,1,2.739,0" fill="#f58518" stroke-width="2" stroke-dasharray="0" opacity="1"/><path aria-label="Date: Jul 18, 2025; Cost ($): 0.731282015; AWS Service: 📊 TOTAL" role="graphics-symbol" aria-roledescription="point" transform="translate(441.37931034482756,334.9971542222222)" d="M2.739,0A2.739,2.739,0,1,1,-2.739,0A2.739,2.739,0,1,1,2.739,0" fill="#f58518" stroke-width="2" stroke-dasharray="0" opacity="1"/><path aria-label="Date: Jul 19, 2025; Cost ($): 0.874602785; AWS Service: 📊 TOTAL" role="graphics-symbol" aria-roledescription="point" transform="translate(468.96551724137925,322.2575302222222)" d="M2.739,0A2.739,2.739,0,1,1,-2.739,0A2.739,2.739,0,1,1,2.739,0" fill="#f58518" stroke-width="2" stroke-dasharray="0" opacity="1"/><path aria-label="Date: Jul 20, 2025; Cost ($): 0.85061667; AWS Service: 📊 TOTAL" role="graphics-symbol" aria-roledescription="point" transform="translate(496.55172413793105,324.38962933333335)" d="M2.739,0A2.739,2.739,0,1,1,-2.739,0A2.739,2.739,0,1,1,2.739,0" fill="#f58518" stroke-width="2" stroke-dasharray="0" opacity="1"/><path aria-label="Date: Jul 21, 2025; Cost ($): 0.792020835; AWS Service: 📊 TOTAL" role="graphics-symbol" aria-roledescription="point" transform="translate(524.1379310344828,329.598148)" d="M2.739,0A2.739,2.739,0,1,1,-2.739,0A2.739,2.739,0,1,1,2.739,0" fill="#f58518" stroke-width="2" stroke-dasharray="0" opacity="1"/><path aria-label="Date: Jul 22, 2025; Cost ($): 0.94731528; AWS Service: 📊 TOTAL" role="graphics-symbol" aria-roledescription="point" transform="translate(551.7241379310345,315.79419733333333)" d="M2.739,0A2.739,2.739,0,1,1,-2.739,0A2.739,2.739,0,1,1,2.739,0" fill="#f58518" stroke-width="2" stroke-dasharray="0" opacity="1"/><path aria-label="Date: Jul 23, 2025; Cost ($): 1.01476806; AWS Service: 📊 TOTAL" role="graphics-symbol" aria-roledescription="point" transform="translate(579.3103448275862,309.79839466666664)" d="M2.739,0A2.739,2.739,0,1,1,-2.739,0A2.739,2.739,0,1,1,2.739,0" fill="#f58518" stroke-width="2" stroke-dasharray="0" opacity="1"/><path aria-label="Date: Jul 24, 2025; Cost ($): 3.7516259005; AWS Service: 📊 TOTAL" role="graphics-symbol" aria-roledescription="point" transform="translate(606.8965517241379,66.5221421777778)" d="M2.739,0A2.739,2.739,0,1,1,-2.739,0A2.739,2.739,0,1,1,2.739,0" fill="#f58518" stroke-width="2" stroke-dasharray="0" opacity="1"/><path aria-label="Date: Jul 25, 2025; Cost ($): 4.3346161322; AWS Service: 📊 TOTAL" role="graphics-symbol" aria-roledescription="point" transform="translate(634.4827586206897,14.700788248888896)" d="M2.739,0A2.739,2.739,0,1,1,-2.739,0A2.739,2.739,0,1,1,2.739,0" fill="#f58518" stroke-width="2" stroke-dasharray="0" opacity="1"/><path aria-label="Date: Jul 26, 2025; Cost ($): 3.3117216837; AWS Service: 📊 TOTAL" role="graphics-symbol" aria-roledescription="point" transform="translate(662.0689655172414,105.62473922666666)" d="M2.739,0A2.739,2.739,0,1,1,-2.739,0A2.739,2.739,0,1,1,2.739,0" fill="#f58518" stroke-width="2" stroke-dasharray="0" opacity="1"/><path aria-label="Date: Jul 27, 2025; Cost ($): 1.92; AWS Service: 📊 TOTAL" role="graphics-symbol" aria-roledescription="point" transform="translate(689.655172413793,229.33333333333334)" d="M2.739,0A2.739,2.739,0,1,1,-2.739,0A2.739,2.739,0,1,1,2.739,0" fill="#f58518" stroke-width="2" stroke-dasharray="0" opacity="1"/><path aria-label="Date: Jul 28, 2025; Cost ($): 1.9200003189; AWS Service: 📊 TOTAL" role="graphics-symbol" aria-roledescription="point" transform="translate(717.2413793103449,229.3333049866667)" d="M2.739,0A2.739,2.739,0,1,1,-2.739,0A2.739,2.739,0,1,1,2.739,0" fill="#f58518" stroke-width="2" stroke-dasharray="0" opacity="1"/><path aria-label="Date: Jul 29, 2025; Cost ($): 0.6743714619; AWS Service: 📊 TOTAL" role="graphics-symbol" aria-roledescription="point" transform="translate(744.8275862068965,340.0558700533333)" d="M2.739,0A2.739,2.739,0,1,1,-2.739,0A2.739,2.739,0,1,1,2.739,0" fill="#f58518" stroke-width="2" stroke-dasharray="0" opacity="1"/><path aria-label="Date: Jul 30, 2025; Cost ($): 2.110190519; AWS Service: 📊 TOTAL" role="graphics-symbol" aria-roledescription="point" transform="translate(772.4137931034483,212.4275094222222)" d="M2.739,0A2.739,2.739,0,1,1,-2.739,0A2.739,2.739,0,1,1,2.739,0" fill="#f58518" stroke-width="2" stroke-dasharray="0" opacity="1"/><path aria-label="Date: Jul 31, 2025; Cost ($): 1.9203922565; AWS Service: 📊 TOTAL" role="graphics-symbol" aria-roledescription="point" transform="translate(800,229.29846608888892)" d="M2.739,0A2.739,2.739,0,1,1,-2.739,0A2.739,2.739,0,1,1,2.739,0" fill="#f58518" stroke-width="2" stroke-dasharray="0" opacity="1"/></g><g class="mark-group role-legend" role="graphics-symbol" aria-roledescription="legend" aria-label="Symbol legend titled 'AWS Service' for fill color and stroke color with 2 values: Amazon Virtual Private Cloud, 📊 TOTAL"><g transform="translate(833,0)"><path class="background" aria-hidden="true" d="M0,0h270v77h-270Z" pointer-events="none"/><g><g class="mark-group role-legend-entry"><g transform="translate(15,32)"><path class="background" aria-hidden="true" d="M0,0h0v0h0Z" pointer-events="none"/><g><g class="mark-group role-scope" role="graphics-object" aria-roledescription="group mark container"><g transform="translate(0,0)"><path class="background" aria-hidden="true" d="M0,0h240v13h-240Z" pointer-events="none" opacity="1"/><g><g class="mark-symbol role-legend-symbol" pointer-events="none"><path transform="translate(6,6)" d="M5,0A5,5,0,1,1,-5,0A5,5,0,1,1,5,0" fill="#4c78a8" stroke="#4c78a8" stroke-width="2" opacity="1"/></g><g class="mark-text role-legend-label" pointer-events="none"><text text-anchor="start" transform="translate(16,9)" font-family="sans-serif" font-size="10px" fill="#000" opacity="1">Amazon Virtual Private Cloud</text></g></g><path class="foreground" aria-hidden="true" d="" pointer-events="none" display="none"/></g><g transform="translate(0,17)"><path class="background" aria-hidden="true" d="M0,0h240v13h-240Z" pointer-events="none" opacity="1"/><g><g class="mark-symbol role-legend-symbol" pointer-events="none"><path transform="translate(6,6)" d="M5,0A5,5,0,1,1,-5,0A5,5,0,1,1,5,0" fill="#f58518" stroke="#f58518" stroke-width="2" opacity="1"/></g><g class="mark-text role-legend-label" pointer-events="none"><text text-anchor="start" transform="translate(16,9)" font-family="sans-serif" font-size="10px" fill="#000" opacity="1">📊 TOTAL</text></g></g><path class="foreground" aria-hidden="true" d="" pointer-events="none" display="none"/></g></g></g><path class="foreground" aria-hidden="true" d="" pointer-events="none" display="none"/></g></g><g class="mark-text role-legend-title" pointer-events="none"><text text-anchor="start" transform="translate(15,24)" font-family="sans-serif" font-size="12px" font-weight="bold" fill="#000" opacity="1">AWS Service</text></g></g><path class="foreground" aria-hidden="true" d="" pointer-events="none" display="none"/></g></g><g class="mark-group role-title"><g transform="translate(400,-36)"><path class="background" aria-hidden="true" d="M0,0h0v0h0Z" pointer-events="none"/><g><g class="mark-text role-title-text" role="graphics-symbol" aria-roledescription="title" aria-label="Title text 'AWS Daily Costs by Service (Amazon Virtual Private Cloud)'" pointer-events="none"><text text-anchor="middle" transform="translate(0,10)" font-family="sans-serif" font-size="13px" font-weight="bold" fill="#000" opacity="1">AWS Daily Costs by Service (Amazon Virtual Private Cloud)</text></g><g class="mark-text role-title-subtitle" role="graphics-symbol" aria-roledescription="subtitle" aria-label="Subtitle text 'Estimated Monthly: $58.46'" pointer-events="none"><text text-anchor="middle" transform="translate(0,25)" font-family="sans-serif" font-size="12px" fill="#000" opacity="1">Estimated Monthly: $58.46</text></g></g><path class="foreground" aria-hidden="true" d="" pointer-events="none" display="none"/></g></g></g><path class="foreground" aria-hidden="true" d="" display="none"/></g></g></g></svg>