<svg xmlns="http://www.w3.org/2000/svg" xmlns:xlink="http://www.w3.org/1999/xlink" version="1.1" class="marks" width="1159" height="478" viewBox="0 0 1159 478"><rect width="1159" height="478" fill="white"/><g fill="none" stroke-miterlimit="10" transform="translate(35,41)"><g class="mark-group role-frame root" role="graphics-object" aria-roledescription="group mark container"><g transform="translate(0,0)"><path class="background" aria-hidden="true" d="M0.5,0.5h800v400h-800Z" stroke="#ddd"/><g><g class="mark-group role-axis" aria-hidden="true"><g transform="translate(0.5,400.5)"><path class="background" aria-hidden="true" d="M0,0h0v0h0Z" pointer-events="none"/><g><g class="mark-rule role-axis-grid" pointer-events="none"><line transform="translate(19,-400)" x2="0" y2="400" stroke="#ddd" stroke-width="1" opacity="1"/><line transform="translate(48,-400)" x2="0" y2="400" stroke="#ddd" stroke-width="1" opacity="1"/><line transform="translate(76,-400)" x2="0" y2="400" stroke="#ddd" stroke-width="1" opacity="1"/><line transform="translate(105,-400)" x2="0" y2="400" stroke="#ddd" stroke-width="1" opacity="1"/><line transform="translate(133,-400)" x2="0" y2="400" stroke="#ddd" stroke-width="1" opacity="1"/><line transform="translate(162,-400)" x2="0" y2="400" stroke="#ddd" stroke-width="1" opacity="1"/><line transform="translate(190,-400)" x2="0" y2="400" stroke="#ddd" stroke-width="1" opacity="1"/><line transform="translate(219,-400)" x2="0" y2="400" stroke="#ddd" stroke-width="1" opacity="1"/><line transform="translate(248,-400)" x2="0" y2="400" stroke="#ddd" stroke-width="1" opacity="1"/><line transform="translate(276,-400)" x2="0" y2="400" stroke="#ddd" stroke-width="1" opacity="1"/><line transform="translate(305,-400)" x2="0" y2="400" stroke="#ddd" stroke-width="1" opacity="1"/><line transform="translate(333,-400)" x2="0" y2="400" stroke="#ddd" stroke-width="1" opacity="1"/><line transform="translate(362,-400)" x2="0" y2="400" stroke="#ddd" stroke-width="1" opacity="1"/><line transform="translate(390,-400)" x2="0" y2="400" stroke="#ddd" stroke-width="1" opacity="1"/><line transform="translate(419,-400)" x2="0" y2="400" stroke="#ddd" stroke-width="1" opacity="1"/><line transform="translate(448,-400)" x2="0" y2="400" stroke="#ddd" stroke-width="1" opacity="1"/><line transform="translate(476,-400)" x2="0" y2="400" stroke="#ddd" stroke-width="1" opacity="1"/><line transform="translate(505,-400)" x2="0" y2="400" stroke="#ddd" stroke-width="1" opacity="1"/><line transform="translate(533,-400)" x2="0" y2="400" stroke="#ddd" stroke-width="1" opacity="1"/><line transform="translate(562,-400)" x2="0" y2="400" stroke="#ddd" stroke-width="1" opacity="1"/><line transform="translate(590,-400)" x2="0" y2="400" stroke="#ddd" stroke-width="1" opacity="1"/><line transform="translate(619,-400)" x2="0" y2="400" stroke="#ddd" stroke-width="1" opacity="1"/><line transform="translate(648,-400)" x2="0" y2="400" stroke="#ddd" stroke-width="1" opacity="1"/><line transform="translate(676,-400)" x2="0" y2="400" stroke="#ddd" stroke-width="1" opacity="1"/><line transform="translate(705,-400)" x2="0" y2="400" stroke="#ddd" stroke-width="1" opacity="1"/><line transform="translate(733,-400)" x2="0" y2="400" stroke="#ddd" stroke-width="1" opacity="1"/><line transform="translate(762,-400)" x2="0" y2="400" stroke="#ddd" stroke-width="1" opacity="1"/><line transform="translate(790,-400)" x2="0" y2="400" stroke="#ddd" stroke-width="1" opacity="1"/></g></g><path class="foreground" aria-hidden="true" d="" pointer-events="none" display="none"/></g></g><g class="mark-group role-axis" aria-hidden="true"><g transform="translate(0.5,0.5)"><path class="background" aria-hidden="true" d="M0,0h0v0h0Z" pointer-events="none"/><g><g class="mark-rule role-axis-grid" pointer-events="none"><line transform="translate(0,400)" x2="800" y2="0" stroke="#ddd" stroke-width="1" opacity="1"/><line transform="translate(0,356)" x2="800" y2="0" stroke="#ddd" stroke-width="1" opacity="1"/><line transform="translate(0,311)" x2="800" y2="0" stroke="#ddd" stroke-width="1" opacity="1"/><line transform="translate(0,267)" x2="800" y2="0" stroke="#ddd" stroke-width="1" opacity="1"/><line transform="translate(0,222)" x2="800" y2="0" stroke="#ddd" stroke-width="1" opacity="1"/><line transform="translate(0,178)" x2="800" y2="0" stroke="#ddd" stroke-width="1" opacity="1"/><line transform="translate(0,133)" x2="800" y2="0" stroke="#ddd" stroke-width="1" opacity="1"/><line transform="translate(0,89)" x2="800" y2="0" stroke="#ddd" stroke-width="1" opacity="1"/><line transform="translate(0,44)" x2="800" y2="0" stroke="#ddd" stroke-width="1" opacity="1"/><line transform="translate(0,0)" x2="800" y2="0" stroke="#ddd" stroke-width="1" opacity="1"/></g></g><path class="foreground" aria-hidden="true" d="" pointer-events="none" display="none"/></g></g><g class="mark-group role-axis" role="graphics-symbol" aria-roledescription="axis" aria-label="X-axis titled 'Date' for a time scale with values from Saturday, 19 July 2025, 8:00:00 PM to Saturday, 26 July 2025, 8:00:00 PM"><g transform="translate(0.5,400.5)"><path class="background" aria-hidden="true" d="M0,0h0v0h0Z" pointer-events="none"/><g><g class="mark-rule role-axis-tick" pointer-events="none"><line transform="translate(19,0)" x2="0" y2="5" stroke="#888" stroke-width="1" opacity="1"/><line transform="translate(48,0)" x2="0" y2="5" stroke="#888" stroke-width="1" opacity="1"/><line transform="translate(76,0)" x2="0" y2="5" stroke="#888" stroke-width="1" opacity="1"/><line transform="translate(105,0)" x2="0" y2="5" stroke="#888" stroke-width="1" opacity="1"/><line transform="translate(133,0)" x2="0" y2="5" stroke="#888" stroke-width="1" opacity="1"/><line transform="translate(162,0)" x2="0" y2="5" stroke="#888" stroke-width="1" opacity="1"/><line transform="translate(190,0)" x2="0" y2="5" stroke="#888" stroke-width="1" opacity="1"/><line transform="translate(219,0)" x2="0" y2="5" stroke="#888" stroke-width="1" opacity="1"/><line transform="translate(248,0)" x2="0" y2="5" stroke="#888" stroke-width="1" opacity="1"/><line transform="translate(276,0)" x2="0" y2="5" stroke="#888" stroke-width="1" opacity="1"/><line transform="translate(305,0)" x2="0" y2="5" stroke="#888" stroke-width="1" opacity="1"/><line transform="translate(333,0)" x2="0" y2="5" stroke="#888" stroke-width="1" opacity="1"/><line transform="translate(362,0)" x2="0" y2="5" stroke="#888" stroke-width="1" opacity="1"/><line transform="translate(390,0)" x2="0" y2="5" stroke="#888" stroke-width="1" opacity="1"/><line transform="translate(419,0)" x2="0" y2="5" stroke="#888" stroke-width="1" opacity="1"/><line transform="translate(448,0)" x2="0" y2="5" stroke="#888" stroke-width="1" opacity="1"/><line transform="translate(476,0)" x2="0" y2="5" stroke="#888" stroke-width="1" opacity="1"/><line transform="translate(505,0)" x2="0" y2="5" stroke="#888" stroke-width="1" opacity="1"/><line transform="translate(533,0)" x2="0" y2="5" stroke="#888" stroke-width="1" opacity="1"/><line transform="translate(562,0)" x2="0" y2="5" stroke="#888" stroke-width="1" opacity="1"/><line transform="translate(590,0)" x2="0" y2="5" stroke="#888" stroke-width="1" opacity="1"/><line transform="translate(619,0)" x2="0" y2="5" stroke="#888" stroke-width="1" opacity="1"/><line transform="translate(648,0)" x2="0" y2="5" stroke="#888" stroke-width="1" opacity="1"/><line transform="translate(676,0)" x2="0" y2="5" stroke="#888" stroke-width="1" opacity="1"/><line transform="translate(705,0)" x2="0" y2="5" stroke="#888" stroke-width="1" opacity="1"/><line transform="translate(733,0)" x2="0" y2="5" stroke="#888" stroke-width="1" opacity="1"/><line transform="translate(762,0)" x2="0" y2="5" stroke="#888" stroke-width="1" opacity="1"/><line transform="translate(790,0)" x2="0" y2="5" stroke="#888" stroke-width="1" opacity="1"/></g><g class="mark-text role-axis-label" pointer-events="none"><text text-anchor="middle" transform="translate(19.047619047619047,15)" font-family="sans-serif" font-size="10px" fill="#000" opacity="1">Jul 20</text><text text-anchor="middle" transform="translate(47.61904761904761,15)" font-family="sans-serif" font-size="10px" fill="#000" opacity="0">06 AM</text><text text-anchor="middle" transform="translate(76.19047619047619,15)" font-family="sans-serif" font-size="10px" fill="#000" opacity="1">12 PM</text><text text-anchor="middle" transform="translate(104.76190476190477,15)" font-family="sans-serif" font-size="10px" fill="#000" opacity="0">06 PM</text><text text-anchor="middle" transform="translate(133.33333333333331,15)" font-family="sans-serif" font-size="10px" fill="#000" opacity="1">Mon 21</text><text text-anchor="middle" transform="translate(161.9047619047619,15)" font-family="sans-serif" font-size="10px" fill="#000" opacity="0">06 AM</text><text text-anchor="middle" transform="translate(190.47619047619045,15)" font-family="sans-serif" font-size="10px" fill="#000" opacity="1">12 PM</text><text text-anchor="middle" transform="translate(219.04761904761907,15)" font-family="sans-serif" font-size="10px" fill="#000" opacity="0">06 PM</text><text text-anchor="middle" transform="translate(247.61904761904762,15)" font-family="sans-serif" font-size="10px" fill="#000" opacity="1">Tue 22</text><text text-anchor="middle" transform="translate(276.1904761904762,15)" font-family="sans-serif" font-size="10px" fill="#000" opacity="0">06 AM</text><text text-anchor="middle" transform="translate(304.76190476190476,15)" font-family="sans-serif" font-size="10px" fill="#000" opacity="1">12 PM</text><text text-anchor="middle" transform="translate(333.33333333333337,15)" font-family="sans-serif" font-size="10px" fill="#000" opacity="0">06 PM</text><text text-anchor="middle" transform="translate(361.9047619047619,15)" font-family="sans-serif" font-size="10px" fill="#000" opacity="1">Wed 23</text><text text-anchor="middle" transform="translate(390.4761904761905,15)" font-family="sans-serif" font-size="10px" fill="#000" opacity="0">06 AM</text><text text-anchor="middle" transform="translate(419.0476190476191,15)" font-family="sans-serif" font-size="10px" fill="#000" opacity="1">12 PM</text><text text-anchor="middle" transform="translate(447.61904761904765,15)" font-family="sans-serif" font-size="10px" fill="#000" opacity="0">06 PM</text><text text-anchor="middle" transform="translate(476.1904761904762,15)" font-family="sans-serif" font-size="10px" fill="#000" opacity="1">Thu 24</text><text text-anchor="middle" transform="translate(504.76190476190476,15)" font-family="sans-serif" font-size="10px" fill="#000" opacity="0">06 AM</text><text text-anchor="middle" transform="translate(533.3333333333333,15)" font-family="sans-serif" font-size="10px" fill="#000" opacity="1">12 PM</text><text text-anchor="middle" transform="translate(561.9047619047618,15)" font-family="sans-serif" font-size="10px" fill="#000" opacity="0">06 PM</text><text text-anchor="middle" transform="translate(590.4761904761905,15)" font-family="sans-serif" font-size="10px" fill="#000" opacity="1">Fri 25</text><text text-anchor="middle" transform="translate(619.047619047619,15)" font-family="sans-serif" font-size="10px" fill="#000" opacity="0">06 AM</text><text text-anchor="middle" transform="translate(647.6190476190476,15)" font-family="sans-serif" font-size="10px" fill="#000" opacity="1">12 PM</text><text text-anchor="middle" transform="translate(676.1904761904761,15)" font-family="sans-serif" font-size="10px" fill="#000" opacity="0">06 PM</text><text text-anchor="middle" transform="translate(704.7619047619047,15)" font-family="sans-serif" font-size="10px" fill="#000" opacity="1">Sat 26</text><text text-anchor="middle" transform="translate(733.3333333333333,15)" font-family="sans-serif" font-size="10px" fill="#000" opacity="0">06 AM</text><text text-anchor="middle" transform="translate(761.9047619047618,15)" font-family="sans-serif" font-size="10px" fill="#000" opacity="1">12 PM</text><text text-anchor="middle" transform="translate(790.4761904761905,15)" font-family="sans-serif" font-size="10px" fill="#000" opacity="0">06 PM</text></g><g class="mark-rule role-axis-domain" pointer-events="none"><line transform="translate(0,0)" x2="800" y2="0" stroke="#888" stroke-width="1" opacity="1"/></g><g class="mark-text role-axis-title" pointer-events="none"><text text-anchor="middle" transform="translate(400,30)" font-family="sans-serif" font-size="11px" font-weight="bold" fill="#000" opacity="1">Date</text></g></g><path class="foreground" aria-hidden="true" d="" pointer-events="none" display="none"/></g></g><g class="mark-group role-axis" role="graphics-symbol" aria-roledescription="axis" aria-label="Y-axis titled 'Cost ($)' for a linear scale with values from 0 to 9"><g transform="translate(0.5,0.5)"><path class="background" aria-hidden="true" d="M0,0h0v0h0Z" pointer-events="none"/><g><g class="mark-rule role-axis-tick" pointer-events="none"><line transform="translate(0,400)" x2="-5" y2="0" stroke="#888" stroke-width="1" opacity="1"/><line transform="translate(0,356)" x2="-5" y2="0" stroke="#888" stroke-width="1" opacity="1"/><line transform="translate(0,311)" x2="-5" y2="0" stroke="#888" stroke-width="1" opacity="1"/><line transform="translate(0,267)" x2="-5" y2="0" stroke="#888" stroke-width="1" opacity="1"/><line transform="translate(0,222)" x2="-5" y2="0" stroke="#888" stroke-width="1" opacity="1"/><line transform="translate(0,178)" x2="-5" y2="0" stroke="#888" stroke-width="1" opacity="1"/><line transform="translate(0,133)" x2="-5" y2="0" stroke="#888" stroke-width="1" opacity="1"/><line transform="translate(0,89)" x2="-5" y2="0" stroke="#888" stroke-width="1" opacity="1"/><line transform="translate(0,44)" x2="-5" y2="0" stroke="#888" stroke-width="1" opacity="1"/><line transform="translate(0,0)" x2="-5" y2="0" stroke="#888" stroke-width="1" opacity="1"/></g><g class="mark-text role-axis-label" pointer-events="none"><text text-anchor="end" transform="translate(-7,403)" font-family="sans-serif" font-size="10px" fill="#000" opacity="1">0</text><text text-anchor="end" transform="translate(-7,358.55555555555554)" font-family="sans-serif" font-size="10px" fill="#000" opacity="1">1</text><text text-anchor="end" transform="translate(-7,314.11111111111114)" font-family="sans-serif" font-size="10px" fill="#000" opacity="1">2</text><text text-anchor="end" transform="translate(-7,269.6666666666667)" font-family="sans-serif" font-size="10px" fill="#000" opacity="1">3</text><text text-anchor="end" transform="translate(-7,225.22222222222223)" font-family="sans-serif" font-size="10px" fill="#000" opacity="1">4</text><text text-anchor="end" transform="translate(-7,180.77777777777777)" font-family="sans-serif" font-size="10px" fill="#000" opacity="1">5</text><text text-anchor="end" transform="translate(-7,136.33333333333334)" font-family="sans-serif" font-size="10px" fill="#000" opacity="1">6</text><text text-anchor="end" transform="translate(-7,91.88888888888889)" font-family="sans-serif" font-size="10px" fill="#000" opacity="1">7</text><text text-anchor="end" transform="translate(-7,47.444444444444464)" font-family="sans-serif" font-size="10px" fill="#000" opacity="1">8</text><text text-anchor="end" transform="translate(-7,3)" font-family="sans-serif" font-size="10px" fill="#000" opacity="1">9</text></g><g class="mark-rule role-axis-domain" pointer-events="none"><line transform="translate(0,400)" x2="0" y2="-400" stroke="#888" stroke-width="1" opacity="1"/></g><g class="mark-text role-axis-title" pointer-events="none"><text text-anchor="middle" transform="translate(-19,200) rotate(-90) translate(0,-2)" font-family="sans-serif" font-size="11px" font-weight="bold" fill="#000" opacity="1">Cost ($)</text></g></g><path class="foreground" aria-hidden="true" d="" pointer-events="none" display="none"/></g></g><g class="mark-group role-scope layer_0_pathgroup" role="graphics-object" aria-roledescription="group mark container"><g transform="translate(0,0)"><path class="background" aria-hidden="true" d="M0,0h800v400h-800Z"/><g><g class="mark-line role-mark layer_0_marks" role="graphics-object" aria-roledescription="line mark container"><path aria-label="Date: Jul 19, 2025; Cost ($): 0.45; Category: EC2 - Other / NatGateway-Hours" role="graphics-symbol" aria-roledescription="line mark" d="M0,380L114.286,356L228.571,352L342.857,352L457.143,350L571.429,372L800,392" stroke="#f58518" stroke-width="1.5" stroke-dasharray="5,5"/></g></g><path class="foreground" aria-hidden="true" d="" display="none"/></g><g transform="translate(0,0)"><path class="background" aria-hidden="true" d="M0,0h800v400h-800Z"/><g><g class="mark-line role-mark layer_0_marks" role="graphics-object" aria-roledescription="line mark container"><path aria-label="Date: Jul 19, 2025; Cost ($): 0.0725173608; Category: EC2 - Other / NatGateway-Bytes" role="graphics-symbol" aria-roledescription="line mark" d="M0,396.777L114.286,387.578L228.571,350.625L342.857,81.742L457.143,161.487L571.429,400L800,400" stroke="#4c78a8" stroke-width="1.5" stroke-dasharray="5,5"/></g></g><path class="foreground" aria-hidden="true" d="" display="none"/></g><g transform="translate(0,0)"><path class="background" aria-hidden="true" d="M0,0h800v400h-800Z"/><g><g class="mark-line role-mark layer_0_marks" role="graphics-object" aria-roledescription="line mark container"><path aria-label="Date: Jul 19, 2025; Cost ($): 0.5225173608; Category: 📊 TOTAL" role="graphics-symbol" aria-roledescription="line mark" d="M0,376.777L114.286,343.578L228.571,302.625L342.857,33.742L457.143,111.487L571.429,372L800,392" stroke="#e45756" stroke-width="3" stroke-dasharray="0"/></g></g><path class="foreground" aria-hidden="true" d="" display="none"/></g></g><g class="mark-symbol role-mark layer_1_marks" role="graphics-object" aria-roledescription="symbol mark container"><path aria-label="Date: Jul 19, 2025; Cost ($): 0.45; Category: EC2 - Other / NatGateway-Hours" role="graphics-symbol" aria-roledescription="point" transform="translate(0,380)" d="M2.739,0A2.739,2.739,0,1,1,-2.739,0A2.739,2.739,0,1,1,2.739,0" fill="#f58518" stroke-width="2" stroke-dasharray="5,5" opacity="1"/><path aria-label="Date: Jul 19, 2025; Cost ($): 0.0725173608; Category: EC2 - Other / NatGateway-Bytes" role="graphics-symbol" aria-roledescription="point" transform="translate(0,396.77700618666665)" d="M2.739,0A2.739,2.739,0,1,1,-2.739,0A2.739,2.739,0,1,1,2.739,0" fill="#4c78a8" stroke-width="2" stroke-dasharray="5,5" opacity="1"/><path aria-label="Date: Jul 20, 2025; Cost ($): 0.99; Category: EC2 - Other / NatGateway-Hours" role="graphics-symbol" aria-roledescription="point" transform="translate(114.28571428571428,356)" d="M2.739,0A2.739,2.739,0,1,1,-2.739,0A2.739,2.739,0,1,1,2.739,0" fill="#f58518" stroke-width="2" stroke-dasharray="5,5" opacity="1"/><path aria-label="Date: Jul 20, 2025; Cost ($): 0.2794874557; Category: EC2 - Other / NatGateway-Bytes" role="graphics-symbol" aria-roledescription="point" transform="translate(114.28571428571428,387.57833530222223)" d="M2.739,0A2.739,2.739,0,1,1,-2.739,0A2.739,2.739,0,1,1,2.739,0" fill="#4c78a8" stroke-width="2" stroke-dasharray="5,5" opacity="1"/><path aria-label="Date: Jul 21, 2025; Cost ($): 1.1109392425; Category: EC2 - Other / NatGateway-Bytes" role="graphics-symbol" aria-roledescription="point" transform="translate(228.57142857142856,350.62492255555554)" d="M2.739,0A2.739,2.739,0,1,1,-2.739,0A2.739,2.739,0,1,1,2.739,0" fill="#4c78a8" stroke-width="2" stroke-dasharray="5,5" opacity="1"/><path aria-label="Date: Jul 21, 2025; Cost ($): 1.08; Category: EC2 - Other / NatGateway-Hours" role="graphics-symbol" aria-roledescription="point" transform="translate(228.57142857142856,352)" d="M2.739,0A2.739,2.739,0,1,1,-2.739,0A2.739,2.739,0,1,1,2.739,0" fill="#f58518" stroke-width="2" stroke-dasharray="5,5" opacity="1"/><path aria-label="Date: Jul 22, 2025; Cost ($): 7.1608156612; Category: EC2 - Other / NatGateway-Bytes" role="graphics-symbol" aria-roledescription="point" transform="translate(342.85714285714283,81.74152616888888)" d="M2.739,0A2.739,2.739,0,1,1,-2.739,0A2.739,2.739,0,1,1,2.739,0" fill="#4c78a8" stroke-width="2" stroke-dasharray="5,5" opacity="1"/><path aria-label="Date: Jul 22, 2025; Cost ($): 1.08; Category: EC2 - Other / NatGateway-Hours" role="graphics-symbol" aria-roledescription="point" transform="translate(342.85714285714283,352)" d="M2.739,0A2.739,2.739,0,1,1,-2.739,0A2.739,2.739,0,1,1,2.739,0" fill="#f58518" stroke-width="2" stroke-dasharray="5,5" opacity="1"/><path aria-label="Date: Jul 23, 2025; Cost ($): 5.3665331903; Category: EC2 - Other / NatGateway-Bytes" role="graphics-symbol" aria-roledescription="point" transform="translate(457.1428571428571,161.48741376444443)" d="M2.739,0A2.739,2.739,0,1,1,-2.739,0A2.739,2.739,0,1,1,2.739,0" fill="#4c78a8" stroke-width="2" stroke-dasharray="5,5" opacity="1"/><path aria-label="Date: Jul 23, 2025; Cost ($): 1.125; Category: EC2 - Other / NatGateway-Hours" role="graphics-symbol" aria-roledescription="point" transform="translate(457.1428571428571,350)" d="M2.739,0A2.739,2.739,0,1,1,-2.739,0A2.739,2.739,0,1,1,2.739,0" fill="#f58518" stroke-width="2" stroke-dasharray="5,5" opacity="1"/><path aria-label="Date: Jul 24, 2025; Cost ($): 0.63; Category: EC2 - Other / NatGateway-Hours" role="graphics-symbol" aria-roledescription="point" transform="translate(571.4285714285714,372)" d="M2.739,0A2.739,2.739,0,1,1,-2.739,0A2.739,2.739,0,1,1,2.739,0" fill="#f58518" stroke-width="2" stroke-dasharray="5,5" opacity="1"/><path aria-label="Date: Jul 24, 2025; Cost ($): 1.19e-8; Category: EC2 - Other / NatGateway-Bytes" role="graphics-symbol" aria-roledescription="point" transform="translate(571.4285714285714,399.9999994711111)" d="M2.739,0A2.739,2.739,0,1,1,-2.739,0A2.739,2.739,0,1,1,2.739,0" fill="#4c78a8" stroke-width="2" stroke-dasharray="5,5" opacity="1"/><path aria-label="Date: Jul 26, 2025; Cost ($): 0.18; Category: EC2 - Other / NatGateway-Hours" role="graphics-symbol" aria-roledescription="point" transform="translate(800,392)" d="M2.739,0A2.739,2.739,0,1,1,-2.739,0A2.739,2.739,0,1,1,2.739,0" fill="#f58518" stroke-width="2" stroke-dasharray="5,5" opacity="1"/><path aria-label="Date: Jul 26, 2025; Cost ($): 1.7e-9; Category: EC2 - Other / NatGateway-Bytes" role="graphics-symbol" aria-roledescription="point" transform="translate(800,399.9999999244444)" d="M2.739,0A2.739,2.739,0,1,1,-2.739,0A2.739,2.739,0,1,1,2.739,0" fill="#4c78a8" stroke-width="2" stroke-dasharray="5,5" opacity="1"/><path aria-label="Date: Jul 19, 2025; Cost ($): 0.5225173608; Category: 📊 TOTAL" role="graphics-symbol" aria-roledescription="point" transform="translate(0,376.77700618666665)" d="M2.739,0A2.739,2.739,0,1,1,-2.739,0A2.739,2.739,0,1,1,2.739,0" fill="#e45756" stroke-width="2" stroke-dasharray="0" opacity="1"/><path aria-label="Date: Jul 20, 2025; Cost ($): 1.2694874557; Category: 📊 TOTAL" role="graphics-symbol" aria-roledescription="point" transform="translate(114.28571428571428,343.57833530222223)" d="M2.739,0A2.739,2.739,0,1,1,-2.739,0A2.739,2.739,0,1,1,2.739,0" fill="#e45756" stroke-width="2" stroke-dasharray="0" opacity="1"/><path aria-label="Date: Jul 21, 2025; Cost ($): 2.1909392425; Category: 📊 TOTAL" role="graphics-symbol" aria-roledescription="point" transform="translate(228.57142857142856,302.62492255555554)" d="M2.739,0A2.739,2.739,0,1,1,-2.739,0A2.739,2.739,0,1,1,2.739,0" fill="#e45756" stroke-width="2" stroke-dasharray="0" opacity="1"/><path aria-label="Date: Jul 22, 2025; Cost ($): 8.2408156612; Category: 📊 TOTAL" role="graphics-symbol" aria-roledescription="point" transform="translate(342.85714285714283,33.741526168888925)" d="M2.739,0A2.739,2.739,0,1,1,-2.739,0A2.739,2.739,0,1,1,2.739,0" fill="#e45756" stroke-width="2" stroke-dasharray="0" opacity="1"/><path aria-label="Date: Jul 23, 2025; Cost ($): 6.4915331903; Category: 📊 TOTAL" role="graphics-symbol" aria-roledescription="point" transform="translate(457.1428571428571,111.48741376444443)" d="M2.739,0A2.739,2.739,0,1,1,-2.739,0A2.739,2.739,0,1,1,2.739,0" fill="#e45756" stroke-width="2" stroke-dasharray="0" opacity="1"/><path aria-label="Date: Jul 24, 2025; Cost ($): 0.6300000119; Category: 📊 TOTAL" role="graphics-symbol" aria-roledescription="point" transform="translate(571.4285714285714,371.99999947111115)" d="M2.739,0A2.739,2.739,0,1,1,-2.739,0A2.739,2.739,0,1,1,2.739,0" fill="#e45756" stroke-width="2" stroke-dasharray="0" opacity="1"/><path aria-label="Date: Jul 26, 2025; Cost ($): 0.1800000017; Category: 📊 TOTAL" role="graphics-symbol" aria-roledescription="point" transform="translate(800,391.9999999244444)" d="M2.739,0A2.739,2.739,0,1,1,-2.739,0A2.739,2.739,0,1,1,2.739,0" fill="#e45756" stroke-width="2" stroke-dasharray="0" opacity="1"/></g><g class="mark-group role-legend" role="graphics-symbol" aria-roledescription="legend" aria-label="Symbol legend titled 'Category' for fill color and stroke color with 3 values: EC2 - Other / NatGateway-Bytes, EC2 - Other / NatGateway-Hours, 📊 TOTAL"><g transform="translate(833,0)"><path class="background" aria-hidden="true" d="M0,0h286v94h-286Z" pointer-events="none"/><g><g class="mark-group role-legend-entry"><g transform="translate(15,32)"><path class="background" aria-hidden="true" d="M0,0h0v0h0Z" pointer-events="none"/><g><g class="mark-group role-scope" role="graphics-object" aria-roledescription="group mark container"><g transform="translate(0,0)"><path class="background" aria-hidden="true" d="M0,0h256v13h-256Z" pointer-events="none" opacity="1"/><g><g class="mark-symbol role-legend-symbol" pointer-events="none"><path transform="translate(6,6)" d="M5,0A5,5,0,1,1,-5,0A5,5,0,1,1,5,0" fill="#4c78a8" stroke="#4c78a8" stroke-width="2" opacity="1"/></g><g class="mark-text role-legend-label" pointer-events="none"><text text-anchor="start" transform="translate(16,9)" font-family="sans-serif" font-size="10px" fill="#000" opacity="1">EC2 - Other / NatGateway-Bytes</text></g></g><path class="foreground" aria-hidden="true" d="" pointer-events="none" display="none"/></g><g transform="translate(0,17)"><path class="background" aria-hidden="true" d="M0,0h256v13h-256Z" pointer-events="none" opacity="1"/><g><g class="mark-symbol role-legend-symbol" pointer-events="none"><path transform="translate(6,6)" d="M5,0A5,5,0,1,1,-5,0A5,5,0,1,1,5,0" fill="#f58518" stroke="#f58518" stroke-width="2" opacity="1"/></g><g class="mark-text role-legend-label" pointer-events="none"><text text-anchor="start" transform="translate(16,9)" font-family="sans-serif" font-size="10px" fill="#000" opacity="1">EC2 - Other / NatGateway-Hours</text></g></g><path class="foreground" aria-hidden="true" d="" pointer-events="none" display="none"/></g><g transform="translate(0,34)"><path class="background" aria-hidden="true" d="M0,0h256v13h-256Z" pointer-events="none" opacity="1"/><g><g class="mark-symbol role-legend-symbol" pointer-events="none"><path transform="translate(6,6)" d="M5,0A5,5,0,1,1,-5,0A5,5,0,1,1,5,0" fill="#e45756" stroke="#e45756" stroke-width="2" opacity="1"/></g><g class="mark-text role-legend-label" pointer-events="none"><text text-anchor="start" transform="translate(16,9)" font-family="sans-serif" font-size="10px" fill="#000" opacity="1">📊 TOTAL</text></g></g><path class="foreground" aria-hidden="true" d="" pointer-events="none" display="none"/></g></g></g><path class="foreground" aria-hidden="true" d="" pointer-events="none" display="none"/></g></g><g class="mark-text role-legend-title" pointer-events="none"><text text-anchor="start" transform="translate(15,24)" font-family="sans-serif" font-size="12px" font-weight="bold" fill="#000" opacity="1">Category</text></g></g><path class="foreground" aria-hidden="true" d="" pointer-events="none" display="none"/></g></g><g class="mark-group role-title"><g transform="translate(400,-36)"><path class="background" aria-hidden="true" d="M0,0h0v0h0Z" pointer-events="none"/><g><g class="mark-text role-title-text" role="graphics-symbol" aria-roledescription="title" aria-label="Title text 'AWS Daily BlendedCost by SERVICE / USAGE_TYPE'" pointer-events="none"><text text-anchor="middle" transform="translate(0,10)" font-family="sans-serif" font-size="13px" font-weight="bold" fill="#000" opacity="1">AWS Daily BlendedCost by SERVICE / USAGE_TYPE</text></g><g class="mark-text role-title-subtitle" role="graphics-symbol" aria-roledescription="subtitle" aria-label="Subtitle text 'Estimated Monthly: $5.48'" pointer-events="none"><text text-anchor="middle" transform="translate(0,25)" font-family="sans-serif" font-size="12px" fill="#000" opacity="1">Estimated Monthly: $5.48</text></g></g><path class="foreground" aria-hidden="true" d="" pointer-events="none" display="none"/></g></g></g><path class="foreground" aria-hidden="true" d="" display="none"/></g></g></g></svg>